<?xml version="1.0" encoding="UTF-8" standalone="no"?>
<svg
   xmlns:dc="http://purl.org/dc/elements/1.1/"
   xmlns:cc="http://creativecommons.org/ns#"
   xmlns:rdf="http://www.w3.org/1999/02/22-rdf-syntax-ns#"
   xmlns:svg="http://www.w3.org/2000/svg"
   xmlns="http://www.w3.org/2000/svg"
   viewBox="0 0 244.44259 73.425225"
   height="73.425224"
   width="244.44258"
   id="svg839"
   version="1.1">
  <metadata
     id="metadata845">
    <rdf:RDF>
      <cc:Work
         rdf:about="">
        <dc:format>image/svg+xml</dc:format>
        <dc:type
           rdf:resource="http://purl.org/dc/dcmitype/StillImage" />
        <dc:title></dc:title>
      </cc:Work>
    </rdf:RDF>
  </metadata>
  <defs
     id="defs843" />
  <path
     id="path1392"
     d="m 135.82156,72.973584 c -1.64525,-0.31671 -1.90735,-0.585001 -1.79265,-1.83494 0.32477,-3.539092 0.68793,-4.252594 1.95526,-3.841521 2.62783,0.852372 8.37035,0.965487 9.73099,0.191669 1.46359,-0.832359 3.23738,-3.688747 2.66835,-4.296913 -0.19091,-0.204032 -1.10109,0.0457 -2.02263,0.555067 -3.65983,2.022721 -8.97511,0.48898 -10.33177,-2.981265 -0.98572,-2.521399 -0.95875,-5.160377 0.0914,-8.939678 2.02138,-7.274824 8.93691,-11.305539 14.85941,-8.660788 1.05012,0.46894 1.9093,0.601337 1.9093,0.294215 0,-0.307122 1.48654,-0.558406 3.30342,-0.558406 2.28008,0 3.30086,0.227856 3.29517,0.735539 -0.005,0.404546 -0.97334,5.26722 -2.15289,10.805948 -2.27617,10.68805 -3.51487,14.06997 -5.88248,16.060404 -3.02249,2.540986 -9.74536,3.603629 -15.63086,2.470669 z m 13.09668,-14.626237 c 1.47157,-1.369928 3.2188,-9.550271 2.18907,-10.248885 -1.30442,-0.884961 -4.12279,-0.492577 -5.64326,0.785672 -2.75217,2.313732 -3.96318,7.652309 -2.17048,9.56829 1.15369,1.233039 4.24941,1.175202 5.62467,-0.105079 z M 110.6629,64.69885 c -3.09102,-2.014328 -2.96039,-7.933124 0.23438,-10.618949 1.67446,-1.40771 5.76364,-2.719501 10.19655,-3.271007 2.58009,-0.320995 3.16578,-0.595215 3.16578,-1.482222 0,-2.325735 -4.50056,-3.048667 -8.82577,-1.417697 -1.29656,0.488909 -2.40745,0.819901 -2.46865,0.73554 -0.0612,-0.08436 0.006,-1.152971 0.14773,-2.374678 0.36126,-3.098492 1.53528,-3.605868 8.41541,-3.636877 4.69156,-0.02115 6.09311,0.176971 7.32012,1.034725 2.87853,2.012289 2.95144,3.075327 0.87676,12.783813 l -1.88267,8.809916 h -3.39163 c -3.0681,0 -3.36538,-0.10728 -3.11645,-1.124663 0.25627,-1.047388 0.095,-1.02717 -2.34712,0.294216 -3.17102,1.715771 -5.96467,1.805673 -8.32444,0.267883 z m 10.32063,-4.454212 c 0.89341,-0.493766 1.62437,-1.122651 1.62437,-1.397524 0,-0.274874 0.16242,-1.36768 0.36092,-2.428455 l 0.36091,-1.928691 -2.26999,0.387952 c -3.30368,0.564606 -5.04128,1.572289 -5.40863,3.136627 -0.67073,2.856183 2.1017,4.015658 5.33242,2.230091 z m 47.13177,4.785807 c -4.31142,-1.722197 -6.25656,-5.282038 -5.6883,-10.410163 0.78116,-7.049308 5.18021,-11.496434 12.02866,-12.160133 7.59855,-0.736396 12.2195,4.570399 9.82962,11.288547 l -0.53694,1.509386 h -7.44631 c -6.06106,0 -7.44633,0.15525 -7.44633,0.834519 0,4.107346 5.26758,5.671196 11.11032,3.298465 1.57497,-0.639596 2.92,-1.102598 2.98896,-1.028891 0.0691,0.07371 -0.14145,1.380149 -0.46752,2.903197 -0.49455,2.309799 -0.87525,2.878318 -2.29484,3.427048 -2.84108,1.098189 -9.69413,1.289994 -12.07732,0.338025 z m 10.10009,-15.026212 c 0,-3.927512 -6.30838,-3.936549 -8.27366,-0.01196 -0.54702,1.092434 -0.36479,1.146717 3.84973,1.146717 4.00227,0 4.42393,-0.108157 4.42393,-1.134831 z M 46.342791,63.059282 c 0.528599,-3.011458 0.610033,-3.093749 3.061424,-3.093749 1.895558,0 2.206144,-0.19765 2.542877,-1.618186 0.21097,-0.890002 1.169788,-5.192908 2.130703,-9.56201 l 1.747121,-7.943823 -2.182098,-0.184172 c -2.115757,-0.17857 -2.171849,-0.238954 -1.844931,-1.985956 0.185443,-0.99098 0.33717,-2.165876 0.33717,-2.610876 0,-0.650807 1.627625,-0.809094 8.31981,-0.809094 h 8.319809 l -0.386539,2.202137 c -0.528602,3.011453 -0.610035,3.093746 -3.061422,3.093746 -1.786748,0 -2.209072,0.228428 -2.447788,1.323969 -0.158663,0.728185 -1.12283,5.097287 -2.142582,9.709118 l -1.854096,8.385147 h 2.132093 c 2.280741,0 2.393948,0.21889 1.787992,3.457034 l -0.344106,1.838847 h -8.25099 -8.250988 z m 21.419168,1.20173 c 0.166426,-0.582512 1.190506,-5.163416 2.275727,-10.179792 1.085221,-5.016377 2.10127,-9.584076 2.257878,-10.150441 0.230534,-0.833694 0.918874,-1.029755 3.615279,-1.029755 2.993896,0 3.303045,0.112319 3.058631,1.11123 -0.251009,1.025861 -0.0403,0.997903 2.742914,-0.363912 3.759962,-1.839745 6.961934,-1.593466 8.788405,0.675957 l 1.204045,1.496045 3.201366,-1.807629 c 4.014737,-2.266892 7.380176,-2.146907 9.377106,0.334312 1.63004,2.025348 1.60835,2.594767 -0.47714,12.529242 l -1.76024,8.385145 h -3.399128 -3.399131 l 1.667509,-7.41454 c 1.779808,-7.913866 1.686833,-9.172639 -0.705454,-9.551104 -0.679154,-0.107439 -1.952936,0.122541 -2.83062,0.511098 -1.736324,0.768668 -1.774804,0.875233 -3.870066,10.717341 l -1.221381,5.737205 h -3.210936 c -1.766017,0 -3.214344,-0.198595 -3.218507,-0.441323 -0.0045,-0.242728 0.661845,-3.576462 1.480023,-7.408297 1.642756,-7.693668 1.488509,-8.810931 -1.252691,-9.073651 -3.505749,-0.335995 -4.186721,0.679201 -6.032816,8.993766 l -1.695281,7.635289 -3.449052,0.176457 c -3.105577,0.15887 -3.418906,0.07098 -3.14644,-0.882646 z M 5.0614007,31.705323 c -3.7905053,-0.81755 -5.37687079,-1.669979 -5.00989996,-2.692054 0.18284371,-0.50925 0.48832885,-1.967806 0.67885604,-3.241236 0.19052719,-1.273429 0.54459082,-2.44623 0.78680812,-2.606222 0.2422172,-0.159998 1.3585641,0.375038 2.4807702,1.18896 5.3320634,3.867272 14.5524069,3.278147 14.5524069,-0.929813 0,-1.472333 -1.876528,-2.723895 -6.109997,-4.075099 C 5.9515646,17.278822 3.4543873,14.61761 3.8584221,10.204207 4.1678584,6.82413 5.5429889,4.91956 8.9665717,3.129368 12.597171,1.230927 17.442589,0.71711897 22.728628,1.670041 27.954545,2.612124 27.915531,2.57093 27.225772,6.418616 26.906712,8.198437 26.577957,9.744197 26.495208,9.853638 26.412468,9.963086 25.148464,9.301096 23.686331,8.38256 21.436516,6.969193 20.423499,6.712497 17.095649,6.712497 c -3.093705,0 -4.179733,0.239041 -5.092764,1.120955 -2.4993371,2.41415 -1.090342,4.23431 4.620466,5.968779 7.109001,2.159128 9.492395,4.642606 8.909903,9.284059 -0.742884,5.91949 -6.260047,9.320823 -14.85562,9.158497 C 8.799958,32.209334 6.2726527,31.966571 5.0614007,31.705323 Z M 61.871211,31.492831 c -4.086093,-1.627701 -5.717231,-4.737337 -5.153475,-9.824705 0.54847,-4.949471 3.117882,-8.958132 7.254556,-11.318185 3.070707,-1.751896 9.632977,-1.797898 12.387804,-0.08683 5.002493,3.107112 5.03964,11.819232 0.07479,17.539703 -3.283908,3.783697 -10.034683,5.494153 -14.563674,3.690025 z m 7.819132,-4.851635 c 2.845593,-2.1302 4.319296,-9.092056 2.509268,-11.853945 -1.026998,-1.567076 -3.301322,-1.720805 -5.136265,-0.347178 -2.845593,2.130198 -4.319296,9.092054 -2.509268,11.853946 1.027,1.567074 3.301323,1.720804 5.136265,0.347177 z m 54.844547,5.064127 c -3.7905,-0.81755 -5.37687,-1.669979 -5.0099,-2.692054 0.18285,-0.50925 0.48833,-1.967806 0.67886,-3.241236 0.19052,-1.273429 0.54459,-2.44623 0.78681,-2.606222 0.24221,-0.159998 1.35856,0.375038 2.48077,1.18896 5.33206,3.867272 14.5524,3.278147 14.5524,-0.929813 0,-1.472333 -1.87652,-2.723895 -6.11,-4.075099 -6.48877,-2.071037 -8.98595,-4.732249 -8.58191,-9.145652 0.30943,-3.380077 1.68456,-5.284647 5.10814,-7.074839 3.6306,-1.898441 8.47602,-2.41224903 13.76206,-1.459327 5.22592,0.942083 5.1869,0.900889 4.49714,4.748575 -0.31906,1.779821 -0.64781,3.325581 -0.73056,3.435022 -0.0828,0.109448 -1.34675,-0.552542 -2.80888,-1.471078 -2.24982,-1.413367 -3.26283,-1.670063 -6.59068,-1.670063 -3.09371,0 -4.17973,0.239041 -5.09276,1.120955 -2.49934,2.41415 -1.09035,4.23431 4.62046,5.968779 7.10901,2.159128 9.4924,4.642606 8.90991,9.284059 -0.74289,5.91949 -6.26005,9.320823 -14.85562,9.158497 -1.87768,-0.03545 -4.40499,-0.278216 -5.61624,-0.539464 z m 26.85943,-0.264715 c -2.50853,-1.165701 -2.73296,-2.9205 -1.26948,-9.925903 0.68318,-3.270262 1.36339,-6.28363 1.51159,-6.696372 0.1772,-0.493538 -0.23691,-0.750443 -1.20963,-0.750443 -1.38038,0 -1.45347,-0.127616 -1.0953,-1.912402 0.52146,-2.5985 0.67436,-2.795049 2.17428,-2.795049 1.13196,0 1.39406,-0.427946 1.98211,-3.236373 l 0.67767,-3.236373 h 3.44126 3.44125 l -0.76949,3.089265 c -0.42321,1.699096 -0.77242,3.155464 -0.77602,3.236373 -0.003,0.08091 1.4967,0.147108 3.33399,0.147108 3.0776,0 3.31592,0.09262 3.02813,1.176863 -0.17182,0.647274 -0.45296,1.706451 -0.62478,2.353725 -0.26638,1.003509 -0.78356,1.176863 -3.51109,1.176863 h -3.19872 l -1.16873,4.980372 c -0.64282,2.739203 -1.16875,5.634094 -1.16875,6.43309 0,1.754122 1.47299,2.397655 4.22501,1.845872 1.75717,-0.35232 1.89851,-0.279457 1.60384,0.826756 -0.17773,0.667219 -0.45524,1.714123 -0.61667,2.326453 -0.16144,0.61233 -0.84277,1.270701 -1.51407,1.463045 -2.14418,0.614354 -6.66842,0.346583 -8.4964,-0.50287 z m 15.9772,-0.282345 c -3.09103,-2.014326 -2.96039,-7.933124 0.23438,-10.618947 1.67446,-1.40771 5.76363,-2.719498 10.19657,-3.271011 2.58008,-0.320994 3.16578,-0.595215 3.16578,-1.48222 0,-2.325732 -4.50058,-3.048664 -8.82577,-1.417698 -1.29659,0.488913 -2.40748,0.819905 -2.46867,0.735539 -0.0612,-0.08437 0.005,-1.152969 0.14767,-2.374675 0.36126,-3.09849 1.53529,-3.605869 8.41544,-3.636876 4.69156,-0.02115 6.09311,0.176971 7.3201,1.034726 2.87854,2.012286 2.95146,3.075324 0.87677,12.78381 l -1.88266,8.809918 h -3.39164 c -3.0681,0 -3.36539,-0.107279 -3.11643,-1.124664 0.25626,-1.047387 0.0951,-1.027172 -2.34714,0.294215 -3.17102,1.715774 -5.96469,1.805675 -8.32445,0.267883 z m 10.32064,-4.454211 c 0.8934,-0.493768 1.62438,-1.122654 1.62438,-1.397525 0,-0.274871 0.16241,-1.367676 0.36091,-2.428456 l 0.36091,-1.928688 -2.27,0.387949 c -3.30367,0.564609 -5.04126,1.572292 -5.40861,3.136628 -0.67074,2.856185 2.10168,4.015655 5.33241,2.230092 z m 17.19712,4.736556 c -2.50852,-1.165701 -2.73295,-2.9205 -1.26946,-9.925903 0.68317,-3.270262 1.36338,-6.28363 1.51158,-6.696372 0.17719,-0.493538 -0.2369,-0.750443 -1.20962,-0.750443 -1.38038,0 -1.45348,-0.127616 -1.09532,-1.912402 0.52147,-2.5985 0.67436,-2.795049 2.1743,-2.795049 1.13196,0 1.39404,-0.427946 1.98211,-3.236373 l 0.67766,-3.236373 h 3.44127 3.44123 l -0.76947,3.089265 c -0.42323,1.699096 -0.77242,3.155464 -0.77602,3.236373 -0.003,0.08091 1.49669,0.147108 3.33397,0.147108 3.07761,0 3.31593,0.09262 3.02813,1.176863 -0.17188,0.647274 -0.45295,1.706451 -0.62476,2.353725 -0.26638,1.003509 -0.78356,1.176863 -3.51109,1.176863 h -3.19872 l -1.16875,4.980372 c -0.6428,2.739203 -1.16874,5.634094 -1.16874,6.43309 0,1.754122 1.47298,2.397655 4.225,1.845872 1.75718,-0.35232 1.89853,-0.279457 1.60385,0.826756 -0.17774,0.667219 -0.45524,1.714123 -0.61668,2.326453 -0.16137,0.61233 -0.84277,1.270701 -1.51407,1.463045 -2.14417,0.614354 -6.66842,0.346583 -8.4964,-0.50287 z m 33.80438,0.05215 c -5.53713,-2.205537 -7.35071,-7.851002 -4.57138,-14.230198 2.82009,-6.472827 10.56016,-9.983816 17.40855,-7.896734 3.15621,0.961872 3.24312,1.11528 2.5802,4.554952 -0.65728,3.410529 -1.09094,3.684102 -2.92336,1.84425 -3.00073,-3.012904 -8.77553,-1.511842 -10.42607,2.710078 -2.61257,6.682787 1.87816,10.554485 8.51129,7.338025 1.33204,-0.645917 2.48859,-1.103102 2.57013,-1.015963 0.0815,0.08714 -0.11562,1.391054 -0.43823,2.897595 -0.43716,2.041778 -0.95134,2.921655 -2.01958,3.455951 -2.22357,1.112177 -8.27225,1.305685 -10.69155,0.342044 z M 28.26579,30.1312 c 0.214589,-0.905709 1.785282,-8.001801 3.490428,-15.769095 l 3.100267,-14.12235303 3.454695,-0.176455 c 3.111541,-0.158932 3.424474,-0.07126 3.150406,0.882647 C 40.627352,3.84954 39.09414,11.740732 39.398733,11.563114 45.136737,8.2171 49.141977,7.965174 51.428679,10.806443 c 1.640566,2.038434 1.594932,3.195322 -0.505848,12.823458 l -1.765373,8.090931 h -3.191039 c -2.194951,0 -3.191036,-0.230844 -3.191036,-0.739525 0,-0.406735 0.62768,-3.717517 1.394842,-7.35729 1.609659,-7.636966 1.378169,-8.97338 -1.551856,-8.95902 -3.834207,0.01879 -4.354224,0.783435 -6.206614,9.126329 l -1.695279,7.635291 -3.420425,0.175664 -3.420424,0.175666 z m 58.555119,1.269996 c 0,-0.604547 -1.64743,-17.041419 -1.958446,-19.539924 L 84.551161,9.360439 h 3.561053 3.561054 l 0.331667,5.44299 c 0.182416,2.993644 0.396047,6.369769 0.474741,7.5025 0.132014,1.900333 0.418063,1.479658 3.701138,-5.44299 l 3.55807,-7.5025 h 3.086386 3.0864 l 0.70793,7.63956 c 0.38936,4.201758 0.87349,7.530207 1.07583,7.396554 0.20234,-0.133647 1.72031,-3.567442 3.37327,-7.630641 l 3.00538,-7.387638 3.44515,-0.0088 3.44514,-0.0088 -5.37213,11.166047 -5.37214,11.166047 -3.71635,0.01419 c -2.04398,0.0077 -3.71858,-0.184449 -3.72132,-0.427176 -0.0155,-1.364715 -1.59202,-13.818706 -1.77401,-14.013203 -0.11957,-0.127801 -1.660325,3.072191 -3.423895,7.111084 l -3.206494,7.3434 H 90.59947 c -2.078211,0 -3.778561,-0.143831 -3.778561,-0.319634 z M 208.70767,30.720424 c 0.16636,-0.582507 1.1905,-5.163412 2.27572,-10.17979 1.08522,-5.016377 2.10126,-9.584075 2.25788,-10.15044 0.22972,-0.830805 0.9158,-1.029755 3.55105,-1.029755 1.79648,0 3.25833,0.198596 3.24857,0.441323 -0.01,0.242728 -1.06997,5.207618 -2.35597,11.033088 l -2.3382,10.591764 -3.47084,0.176457 c -3.12656,0.158949 -3.4408,0.0714 -3.16821,-0.882647 z m 5.50675,-25.331897 c 0.1574,-0.566366 0.44875,-1.757939 0.64735,-2.647941 0.34778,-1.558437 0.49243,-1.618187 3.91725,-1.618187 3.12876,0 3.52171,0.123755 3.26987,1.029755 -0.15741,0.566365 -0.44875,1.757939 -0.64737,2.647941 -0.34778,1.558435 -0.49243,1.618187 -3.91724,1.618187 -3.12875,0 -3.5217,-0.123755 -3.26986,-1.029755 z"
     style="fill:#FFFFFF;stroke-width:0.5691855" />
</svg>
